<svg data-v-2cb57da0="" version="1.0" xmlns="http://www.w3.org/2000/svg" xmlns:xlink="http://www.w3.org/1999/xlink" width="100%" height="100%" viewBox="0 0 340.000000 250.000000" preserveAspectRatio="xMidYMid meet" color-interpolation-filters="sRGB" style="margin: auto;"><rect data-v-2cb57da0="" x="0" y="0" width="100%" height="100%" fill="#020202" fill-opacity="0" class="background"></rect>  <g data-v-2cb57da0="" fill="#fff" class="linesvg" transform="translate(88.62999725341797,92.83000183105469)"><polyline stroke="#fff" stroke-width="3" fill-opacity="0" points="0,15.127500057220459 0,0 15.127500057220459,0"></polyline> <polyline stroke="#fff" stroke-width="3" fill-opacity="0" points="147.6125054359436,64.34000015258789 162.74000549316406,64.34000015258789 162.74000549316406,49.21250009536743"></polyline> <polyline stroke="#fff" stroke-width="3" fill-opacity="0" points="162.74000549316406,15.127500057220459 162.74000549316406,0 147.6125054359436,0"></polyline> <polyline stroke="#fff" stroke-width="3" fill-opacity="0" points="15.127500057220459,64.34000015258789 0,64.34000015258789 0,49.21250009536743"></polyline> <g fill="#fff" transform="translate(12,12)"><g data-gra="path-name" fill-rule="" class="tp-name" opacity="1" transform="matrix(1,0,0,1,0,0)"><g transform="scale(1)"><g><path d="M2.5-15.16L2.5-15.16Q2.5-30.26 6.61-30.26L6.61-30.26 6.64-30.26Q10.74-30.23 10.74-18.71 10.74-7.19 19.18-7.21L19.18-7.21Q26.5-7.23 26.5-4.5L26.5-4.5Q26.5-4.11 26.35-3.65L26.35-3.65Q25.07-0.04 13.86-0.04L13.86-0.04Q13.82-0.04 13.8-0.07L13.8-0.07Q2.5-0.07 2.5-15.16ZM33.11-10.22Q33.11-21.14 37.06-21.14 41-21.14 40.98-11.7 40.96-2.26 37.02-0.77L37.02-0.77Q36.54-0.59 36.15-0.59L36.15-0.59Q33.09-0.59 33.11-10.22L33.11-10.22ZM36.89-31.38L36.89-31.38Q36.89-31.38 38.01-31.08 39.13-30.78 39.95-29.97 40.76-29.16 41.07-28.04L41.07-28.04Q41.22-27.49 41.22-26.92L41.22-26.92Q41.22-26.37 41.07-25.82L41.07-25.82Q40.76-24.7 40.45-24.18 40.14-23.66 39.11-23.05 38.08-22.43 37.49-22.45 36.89-22.46 36.3-22.46 35.71-22.46 34.66-23.06 33.62-23.66 33.33-24.18 33.05-24.7 32.76-25.82L32.76-25.82Q32.61-26.37 32.61-26.92L32.61-26.92Q32.61-27.49 32.76-28.04L32.76-28.04Q33.05-29.16 33.86-29.97 34.67-30.78 36.89-31.38ZM69.52-6.24L69.52-6.24 69.52-6.22Q69.52-1.69 65.59-0.7L65.59-0.7Q64.97-0.53 64.45-0.53L64.45-0.53Q61.63-0.53 61.66-5.12L61.66-5.12Q61.68-10.55 61.68-11.47 61.68-12.39 61.37-13.5 61.06-14.61 60.23-15.21 59.39-15.8 58.61-15.79 57.83-15.78 57.06-15.75 56.29-15.73 55.45-15.17 54.6-14.61 54.16-13.71 53.72-12.81 53.73-11.6 53.75-10.39 53.77-6.13 53.79-1.87 49.94-0.77L49.94-0.77Q49.59-0.66 49.26-0.66L49.26-0.66Q46.08-0.66 46.08-10.7L46.08-10.7Q46.08-10.72 46.1-10.77L46.1-10.77Q46.1-21.84 49.94-21.83 53.79-21.82 53.79-20.74 53.79-19.67 54.09-20.01 54.38-20.35 54.82-20.7 55.26-21.05 56.09-21.42 56.91-21.8 57.99-21.93L57.99-21.93Q58.84-22.04 59.72-22.04L59.72-22.04 60.16-22.04Q61.24-21.99 62.38-21.94 63.52-21.88 64.8-21.57 66.07-21.25 67.08-20.46 68.09-19.67 68.6-18.69 69.1-17.71 69.29-16.49 69.48-15.27 69.49-13.03 69.5-10.79 69.52-6.24ZM91.76-21.25L91.76-21.25Q91.76-21.82 95.7-21.8 99.65-21.77 99.65-11.27L99.65-11.27 99.65 0.13Q99.65 1.05 99.29 2.94 98.94 4.83 98.21 5.76 97.47 6.68 96.6 7.27 95.73 7.87 93.91 8.42 92.09 8.96 91.12 8.96L91.12 8.96 83.96 8.96Q83.17 8.96 81.8 8.76 80.44 8.55 79.31 8 78.18 7.45 77.41 6.57 76.64 5.69 76.19 4.76 75.74 3.82 75.73 3.52 75.72 3.21 75.61 2.21 75.5 1.21 79.32 1.21 83.14 1.21 83.17 1.53 83.19 1.85 83.35 2.3 83.52 2.75 84.16 3.19 84.79 3.63 85.21 3.63L85.21 3.63 88.26 3.63Q89.17 3.63 90.1 2.77 91.03 1.91 91.4 0.98 91.76 0.04 91.76-0.53L91.76-0.53 91.76-2Q91.76-2.9 91.44-2.52 91.12-2.13 90.49-1.67 89.87-1.21 88.52-1.03 87.17-0.86 86.11-0.81 85.06-0.77 84.69-0.78 84.33-0.79 83.62-0.79 82.9-0.79 81.36-1 79.83-1.21 78.6-1.8 77.37-2.4 76.54-3.34 75.72-4.28 75.23-5.97 74.75-7.65 74.71-9.76L74.71-9.76Q74.69-10.57 74.69-11.23L74.69-11.23Q74.69-12.28 74.73-12.96L74.73-12.96Q74.82-14.04 74.92-15.24 75.01-16.44 75.59-17.85 76.16-19.27 77.06-20.13 77.96-20.98 79.06-21.53 80.16-22.08 81.23-22.08L81.23-22.08 86.31-22.08Q87.17-22.08 88.46-21.9 89.76-21.71 90.07-21.54 90.37-21.38 91.07-21.03 91.76-20.68 91.76-21.25ZM85.14-6.48L85.14-6.48Q85.89-6.48 87.08-6.46 88.26-6.44 88.76-6.43 89.25-6.42 90.08-6.7 90.9-6.99 91.33-7.75 91.76-8.5 91.76-9.05L91.76-9.05 91.76-13.56Q91.76-14.06 91.45-14.71 91.14-15.36 90.47-15.79 89.8-16.22 88.99-16.22L88.99-16.22 85.69-16.22Q84.73-16.22 83.88-15.83 83.03-15.45 82.65-14.4 82.27-13.36 82.25-10.95 82.24-8.55 82.42-8.24 82.6-7.93 82.77-7.61 82.95-7.29 83.67-6.9 84.4-6.5 85.14-6.48ZM104.83-10.22Q104.83-21.14 108.78-21.14 112.72-21.14 112.7-11.7 112.68-2.26 108.74-0.77L108.74-0.77Q108.26-0.59 107.86-0.59L107.86-0.59Q104.81-0.59 104.83-10.22L104.83-10.22ZM108.61-31.38L108.61-31.38Q108.61-31.38 109.73-31.08 110.85-30.78 111.67-29.97 112.48-29.16 112.79-28.04L112.79-28.04Q112.94-27.49 112.94-26.92L112.94-26.92Q112.94-26.37 112.79-25.82L112.79-25.82Q112.48-24.7 112.17-24.18 111.86-23.66 110.83-23.05 109.8-22.43 109.2-22.45 108.61-22.46 108.02-22.46 107.42-22.46 106.38-23.06 105.34-23.66 105.05-24.18 104.77-24.7 104.48-25.82L104.48-25.82Q104.33-26.37 104.33-26.92L104.33-26.92Q104.33-27.49 104.48-28.04L104.48-28.04Q104.77-29.16 105.58-29.97 106.39-30.78 108.61-31.38ZM141.24-6.24L141.24-6.24 141.24-6.22Q141.24-1.69 137.31-0.7L137.31-0.7Q136.69-0.53 136.16-0.53L136.16-0.53Q133.35-0.53 133.37-5.12L133.37-5.12Q133.4-10.55 133.4-11.47 133.4-12.39 133.09-13.5 132.78-14.61 131.95-15.21 131.11-15.8 130.33-15.79 129.55-15.78 128.78-15.75 128.01-15.73 127.17-15.17 126.32-14.61 125.88-13.71 125.44-12.81 125.45-11.6 125.46-10.39 125.49-6.13 125.51-1.87 121.66-0.77L121.66-0.77Q121.31-0.66 120.98-0.66L120.98-0.66Q117.8-0.66 117.8-10.7L117.8-10.7Q117.8-10.72 117.82-10.77L117.82-10.77Q117.82-21.84 121.66-21.83 125.51-21.82 125.51-20.74 125.51-19.67 125.8-20.01 126.1-20.35 126.54-20.7 126.98-21.05 127.8-21.42 128.63-21.8 129.7-21.93L129.7-21.93Q130.56-22.04 131.44-22.04L131.44-22.04 131.88-22.04Q132.96-21.99 134.1-21.94 135.24-21.88 136.52-21.57 137.79-21.25 138.8-20.46 139.81-19.67 140.32-18.69 140.82-17.71 141.01-16.49 141.2-15.27 141.21-13.03 141.22-10.79 141.24-6.24Z" transform="translate(-2.5, 31.3799991607666)"></path></g> <!----> <!----> <!----> <!----> <!----> <!----> <!----></g></g> <!----></g></g><defs v-gra="od"></defs></svg>